<svg width="280" height="290" viewBox="0 0 280 290" xmlns="http://www.w3.org/2000/svg">
<style>
    .title { fill: #24292e; font-family: -apple-system, BlinkMacSystemFont, "Segoe UI", Helvetica, Arial, sans-serif; font-size: 14px; font-weight: bold; }
    .legend { fill: #57606a; font-family: -apple-system, BlinkMacSystemFont, "Segoe UI", Helvetica, Arial, sans-serif; font-size: 11px; }
    .legend.expert { font-weight: bold; fill: #b8860b; }
    .legend.advanced { font-weight: 600; fill: #24292e; }
    .legend.intermediate { font-weight: normal; }
    .legend.beginner { font-style: italic; opacity: 0.8; }
    @media (prefers-color-scheme: dark) {
      .title { fill: #c9d1d9; }
      .legend { fill: #8b949e; }
      .legend.expert { fill: #e3b341; }
      .legend.advanced { fill: #c9d1d9; }
    }
    .arc { transition: opacity 0.2s; stroke: #ffffff; stroke-width: 1.5px; }
    @media (prefers-color-scheme: dark) {
      .arc { stroke: #0d1117; }
    }
    .arc:hover { opacity: 0.8; }
  </style>
<text class="title" x="140.0" y="25" dominant-baseline="middle" text-anchor="middle">AI-Assisted Development</text>
<g><title>OpenAI API (24) - Advanced</title><path class="arc" d="M 140.0 55.0 A 70 70 0 0 1 209.83681384333772 129.77696893552695 L 179.90675076762156 127.72969653458684 A 40 40 0 0 0 140.0 85.0 Z" fill="#00599C" /></g>
<g><title>Copilot Agent (24) - Advanced</title><path class="arc" d="M 209.83681384333772 129.77696893552695 A 70 70 0 0 1 130.46833456326274 194.34801622254315 L 134.55333403615015 164.62743784145323 A 40 40 0 0 0 179.90675076762156 127.72969653458684 Z" fill="#ED8B00" /></g>
<g><title>Cursor IDE (12) - Intermediate</title><path class="arc" d="M 130.46833456326274 194.34801622254315 A 70 70 0 0 1 82.81210748926907 165.3676225480407 L 107.32120427958232 148.06721288459468 A 40 40 0 0 0 134.55333403615015 164.62743784145323 Z" fill="#3670A0" /></g>
<g><title>Claude CLI (12) - Intermediate</title><path class="arc" d="M 82.81210748926907 165.3676225480407 A 70 70 0 0 1 71.4641138622374 110.75807908631563 L 100.83663649270709 116.86175947789465 A 40 40 0 0 0 107.32120427958232 148.06721288459468 Z" fill="#239120" /></g>
<g><title>Gemini CLI (12) - Intermediate</title><path class="arc" d="M 71.4641138622374 110.75807908631563 A 70 70 0 0 1 103.62912349751966 65.1906416817458 L 119.21664199858266 90.82322381814046 A 40 40 0 0 0 100.83663649270709 116.86175947789465 Z" fill="#F7DF1E" /></g>
<g><title>Android Studio (8) - Intermediate</title><path class="arc" d="M 103.62912349751966 65.1906416817458 A 70 70 0 0 1 140.0 55.0 L 140.0 85.0 A 40 40 0 0 0 119.21664199858266 90.82322381814046 Z" fill="#5C2D91" /></g>
<rect x="10.0" y="212" width="8" height="8" fill="#00599C" rx="2" />
<text class="legend advanced" x="24.0" y="220">OpenAI API (24)</text>
<rect x="150.0" y="212" width="8" height="8" fill="#ED8B00" rx="2" />
<text class="legend advanced" x="164.0" y="220">Copilot Agent (24)</text>
<rect x="10.0" y="232" width="8" height="8" fill="#3670A0" rx="2" />
<text class="legend intermediate" x="24.0" y="240">Cursor IDE (12)</text>
<rect x="150.0" y="232" width="8" height="8" fill="#239120" rx="2" />
<text class="legend intermediate" x="164.0" y="240">Claude CLI (12)</text>
<rect x="10.0" y="252" width="8" height="8" fill="#F7DF1E" rx="2" />
<text class="legend intermediate" x="24.0" y="260">Gemini CLI (12)</text>
<rect x="150.0" y="252" width="8" height="8" fill="#5C2D91" rx="2" />
<text class="legend intermediate" x="164.0" y="260">Android Studio (8)</text>
</svg>