<svg width="280" height="330" viewBox="0 0 280 330" xmlns="http://www.w3.org/2000/svg">
<style>
    .title { fill: #24292e; font-family: -apple-system, BlinkMacSystemFont, "Segoe UI", Helvetica, Arial, sans-serif; font-size: 14px; font-weight: bold; }
    .legend { fill: #57606a; font-family: -apple-system, BlinkMacSystemFont, "Segoe UI", Helvetica, Arial, sans-serif; font-size: 11px; }
    @media (prefers-color-scheme: dark) {
      .title { fill: #c9d1d9; }
      .legend { fill: #8b949e; }
    }
    .arc { transition: opacity 0.2s; stroke: #ffffff; stroke-width: 1.5px; }
    @media (prefers-color-scheme: dark) {
      .arc { stroke: #0d1117; }
    }
    .arc:hover { opacity: 0.8; }
  </style>
<text class="title" x="140.0" y="25" dominant-baseline="middle" text-anchor="middle">CI/CD and Automation</text>
<g><title>Maven (48)</title><path class="arc" d="M 140.0 55.0 A 70 70 0 0 1 200.6217782649107 90.0 L 174.64101615137753 105.0 A 40 40 0 0 0 140.0 85.0 Z" fill="#00599C" /></g>
<g><title>Bash/Zsh (48)</title><path class="arc" d="M 200.6217782649107 90.0 A 70 70 0 0 1 200.62177826491072 160.0 L 174.64101615137756 145.0 A 40 40 0 0 0 174.64101615137753 105.0 Z" fill="#ED8B00" /></g>
<g><title>GitHub Actions (36)</title><path class="arc" d="M 200.62177826491072 160.0 A 70 70 0 0 1 158.11733315717646 192.6148078402348 L 150.35276180410085 163.63703305156272 A 40 40 0 0 0 174.64101615137756 145.0 Z" fill="#3670A0" /></g>
<g><title>Gradle (36)</title><path class="arc" d="M 158.11733315717646 192.6148078402348 A 70 70 0 0 1 105.00000000000001 185.62177826491072 L 120.0 159.64101615137756 A 40 40 0 0 0 150.35276180410085 163.63703305156272 Z" fill="#239120" /></g>
<g><title>Batch (36)</title><path class="arc" d="M 105.00000000000001 185.62177826491072 A 70 70 0 0 1 72.38519215976523 143.11733315717646 L 101.36296694843728 135.35276180410085 A 40 40 0 0 0 120.0 159.64101615137756 Z" fill="#F7DF1E" /></g>
<g><title>GitLab CI (24)</title><path class="arc" d="M 72.38519215976523 143.11733315717646 A 70 70 0 0 1 72.38519215976521 106.88266684282357 L 101.36296694843726 114.64723819589919 A 40 40 0 0 0 101.36296694843728 135.35276180410085 Z" fill="#5C2D91" /></g>
<g><title>Jenkins (24)</title><path class="arc" d="M 72.38519215976521 106.88266684282357 A 70 70 0 0 1 90.50252531694164 75.5025253169417 L 111.71572875253808 96.71572875253811 A 40 40 0 0 0 101.36296694843726 114.64723819589919 Z" fill="#E34F26" /></g>
<g><title>AWK (24)</title><path class="arc" d="M 90.50252531694164 75.5025253169417 A 70 70 0 0 1 121.8826668428235 57.38519215976524 L 129.64723819589915 86.36296694843728 A 40 40 0 0 0 111.71572875253808 96.71572875253811 Z" fill="#41B883" /></g>
<g><title>uv (12)</title><path class="arc" d="M 121.8826668428235 57.38519215976524 A 70 70 0 0 1 139.99999999999991 55.0 L 139.99999999999994 85.0 A 40 40 0 0 0 129.64723819589915 86.36296694843728 Z" fill="#009688" /></g>
<rect x="10.0" y="212" width="8" height="8" fill="#00599C" rx="2" />
<text class="legend" x="24.0" y="220">Maven (48)</text>
<rect x="150.0" y="212" width="8" height="8" fill="#ED8B00" rx="2" />
<text class="legend" x="164.0" y="220">Bash/Zsh (48)</text>
<rect x="10.0" y="232" width="8" height="8" fill="#3670A0" rx="2" />
<text class="legend" x="24.0" y="240">GitHub Actions (36)</text>
<rect x="150.0" y="232" width="8" height="8" fill="#239120" rx="2" />
<text class="legend" x="164.0" y="240">Gradle (36)</text>
<rect x="10.0" y="252" width="8" height="8" fill="#F7DF1E" rx="2" />
<text class="legend" x="24.0" y="260">Batch (36)</text>
<rect x="150.0" y="252" width="8" height="8" fill="#5C2D91" rx="2" />
<text class="legend" x="164.0" y="260">GitLab CI (24)</text>
<rect x="10.0" y="272" width="8" height="8" fill="#E34F26" rx="2" />
<text class="legend" x="24.0" y="280">Jenkins (24)</text>
<rect x="150.0" y="272" width="8" height="8" fill="#41B883" rx="2" />
<text class="legend" x="164.0" y="280">AWK (24)</text>
<rect x="10.0" y="292" width="8" height="8" fill="#009688" rx="2" />
<text class="legend" x="24.0" y="300">uv (12)</text>
</svg>