<svg width="280" height="290" viewBox="0 0 280 290" xmlns="http://www.w3.org/2000/svg">
<style>
    .title { fill: #24292e; font-family: -apple-system, BlinkMacSystemFont, "Segoe UI", Helvetica, Arial, sans-serif; font-size: 14px; font-weight: bold; }
    .legend { fill: #57606a; font-family: -apple-system, BlinkMacSystemFont, "Segoe UI", Helvetica, Arial, sans-serif; font-size: 11px; }
    .legend.expert { font-weight: bold; fill: #b8860b; }
    .legend.advanced { font-weight: 600; fill: #24292e; }
    .legend.intermediate { font-weight: normal; }
    .legend.beginner { font-style: italic; opacity: 0.8; }
    @media (prefers-color-scheme: dark) {
      .title { fill: #c9d1d9; }
      .legend { fill: #8b949e; }
      .legend.expert { fill: #e3b341; }
      .legend.advanced { fill: #c9d1d9; }
    }
    .arc { transition: opacity 0.2s; stroke: #ffffff; stroke-width: 1.5px; }
    @media (prefers-color-scheme: dark) {
      .arc { stroke: #0d1117; }
    }
    .arc:hover { opacity: 0.8; }
  </style>
<text class="title" x="140.0" y="25" dominant-baseline="middle" text-anchor="middle">Data Science and Visualization</text>
<g><title>MATLAB (24) - Advanced</title><path class="arc" d="M 140.0 55.0 A 70 70 0 0 1 208.24495385272763 140.576465376942 L 178.99711648727293 133.90083735825257 A 40 40 0 0 0 140.0 85.0 Z" fill="#00599C" /></g>
<g><title>Pandas (18) - Advanced</title><path class="arc" d="M 208.24495385272763 140.576465376942 A 70 70 0 0 1 140.0 195.0 L 140.0 165.0 A 40 40 0 0 0 178.99711648727293 133.90083735825257 Z" fill="#ED8B00" /></g>
<g><title>NumPy (18) - Advanced</title><path class="arc" d="M 140.0 195.0 A 70 70 0 0 1 71.75504614727235 140.57646537694202 L 101.00288351272705 133.90083735825257 A 40 40 0 0 0 140.0 165.0 Z" fill="#3670A0" /></g>
<g><title>Matplotlib (18) - Advanced</title><path class="arc" d="M 71.75504614727235 140.57646537694202 A 70 70 0 0 1 109.62813826177091 61.93217924683067 L 122.64465043529768 88.96124528390324 A 40 40 0 0 0 101.00288351272705 133.90083735825257 Z" fill="#239120" /></g>
<g><title>D3.js (6) - Beginner</title><path class="arc" d="M 109.62813826177091 61.93217924683067 A 70 70 0 0 1 140.0 55.0 L 140.0 85.0 A 40 40 0 0 0 122.64465043529768 88.96124528390324 Z" fill="#F7DF1E" /></g>
<rect x="10.0" y="212" width="8" height="8" fill="#00599C" rx="2" />
<text class="legend advanced" x="24.0" y="220">MATLAB (24)</text>
<rect x="150.0" y="212" width="8" height="8" fill="#ED8B00" rx="2" />
<text class="legend advanced" x="164.0" y="220">Pandas (18)</text>
<rect x="10.0" y="232" width="8" height="8" fill="#3670A0" rx="2" />
<text class="legend advanced" x="24.0" y="240">NumPy (18)</text>
<rect x="150.0" y="232" width="8" height="8" fill="#239120" rx="2" />
<text class="legend advanced" x="164.0" y="240">Matplotlib (18)</text>
<rect x="10.0" y="252" width="8" height="8" fill="#F7DF1E" rx="2" />
<text class="legend beginner" x="24.0" y="260">D3.js (6)</text>
</svg>