<svg width="280" height="290" viewBox="0 0 280 290" xmlns="http://www.w3.org/2000/svg">
<style>
    .title { fill: #24292e; font-family: -apple-system, BlinkMacSystemFont, "Segoe UI", Helvetica, Arial, sans-serif; font-size: 14px; font-weight: bold; }
    .legend { fill: #57606a; font-family: -apple-system, BlinkMacSystemFont, "Segoe UI", Helvetica, Arial, sans-serif; font-size: 11px; }
    @media (prefers-color-scheme: dark) {
      .title { fill: #c9d1d9; }
      .legend { fill: #8b949e; }
    }
    .arc { transition: opacity 0.2s; stroke: #ffffff; stroke-width: 1.5px; }
    @media (prefers-color-scheme: dark) {
      .arc { stroke: #0d1117; }
    }
    .arc:hover { opacity: 0.8; }
  </style>
<text class="title" x="140.0" y="25" dominant-baseline="middle" text-anchor="middle">Databases</text>
<g><title>SQLite (48)</title><path class="arc" d="M 140.0 55.0 A 70 70 0 0 1 200.62177826491072 160.0 L 174.64101615137756 145.0 A 40 40 0 0 0 140.0 85.0 Z" fill="#00599C" /></g>
<g><title>MySQL (36)</title><path class="arc" d="M 200.62177826491072 160.0 A 70 70 0 0 1 105.00000000000001 185.62177826491072 L 120.0 159.64101615137756 A 40 40 0 0 0 174.64101615137756 145.0 Z" fill="#ED8B00" /></g>
<g><title>Oracle (24)</title><path class="arc" d="M 105.00000000000001 185.62177826491072 A 70 70 0 0 1 70.0 125.00000000000001 L 100.0 125.0 A 40 40 0 0 0 120.0 159.64101615137756 Z" fill="#3670A0" /></g>
<g><title>MS Access (24)</title><path class="arc" d="M 70.0 125.00000000000001 A 70 70 0 0 1 104.99999999999997 64.37822173508931 L 119.99999999999999 90.35898384862246 A 40 40 0 0 0 100.0 125.0 Z" fill="#239120" /></g>
<g><title>Apache Derby (12)</title><path class="arc" d="M 104.99999999999997 64.37822173508931 A 70 70 0 0 1 140.0 55.0 L 140.0 85.0 A 40 40 0 0 0 119.99999999999999 90.35898384862246 Z" fill="#F7DF1E" /></g>
<rect x="10.0" y="212" width="8" height="8" fill="#00599C" rx="2" />
<text class="legend" x="24.0" y="220">SQLite (48)</text>
<rect x="150.0" y="212" width="8" height="8" fill="#ED8B00" rx="2" />
<text class="legend" x="164.0" y="220">MySQL (36)</text>
<rect x="10.0" y="232" width="8" height="8" fill="#3670A0" rx="2" />
<text class="legend" x="24.0" y="240">Oracle (24)</text>
<rect x="150.0" y="232" width="8" height="8" fill="#239120" rx="2" />
<text class="legend" x="164.0" y="240">MS Access (24)</text>
<rect x="10.0" y="252" width="8" height="8" fill="#F7DF1E" rx="2" />
<text class="legend" x="24.0" y="260">Apache Derby (12)</text>
</svg>