<svg width="280" height="290" viewBox="0 0 280 290" xmlns="http://www.w3.org/2000/svg">
<style>
    .title { fill: #24292e; font-family: -apple-system, BlinkMacSystemFont, "Segoe UI", Helvetica, Arial, sans-serif; font-size: 14px; font-weight: bold; }
    .legend { fill: #57606a; font-family: -apple-system, BlinkMacSystemFont, "Segoe UI", Helvetica, Arial, sans-serif; font-size: 11px; }
    @media (prefers-color-scheme: dark) {
      .title { fill: #c9d1d9; }
      .legend { fill: #8b949e; }
    }
    .arc { transition: opacity 0.2s; stroke: #ffffff; stroke-width: 1.5px; }
    @media (prefers-color-scheme: dark) {
      .arc { stroke: #0d1117; }
    }
    .arc:hover { opacity: 0.8; }
  </style>
<text class="title" x="140.0" y="25" dominant-baseline="middle" text-anchor="middle">Desktop Development</text>
<g><title>MVC Architecture (48)</title><path class="arc" d="M 140.0 55.0 A 70 70 0 0 1 208.24495385272763 140.576465376942 L 178.99711648727293 133.90083735825257 A 40 40 0 0 0 140.0 85.0 Z" fill="#00599C" /></g>
<g><title>Qt (C++) (36)</title><path class="arc" d="M 208.24495385272763 140.576465376942 A 70 70 0 0 1 140.0 195.0 L 140.0 165.0 A 40 40 0 0 0 178.99711648727293 133.90083735825257 Z" fill="#ED8B00" /></g>
<g><title>JavaFX-Swing (Java) (36)</title><path class="arc" d="M 140.0 195.0 A 70 70 0 0 1 71.75504614727235 140.57646537694202 L 101.00288351272705 133.90083735825257 A 40 40 0 0 0 140.0 165.0 Z" fill="#3670A0" /></g>
<g><title>WinForms (C#) (24)</title><path class="arc" d="M 71.75504614727235 140.57646537694202 A 70 70 0 0 1 85.2717962272379 81.35571386988866 L 108.7267407012788 100.06040792565067 A 40 40 0 0 0 101.00288351272705 133.90083735825257 Z" fill="#239120" /></g>
<g><title>PyQt (Python) (24)</title><path class="arc" d="M 85.2717962272379 81.35571386988866 A 70 70 0 0 1 140.0 55.0 L 140.0 85.0 A 40 40 0 0 0 108.7267407012788 100.06040792565067 Z" fill="#F7DF1E" /></g>
<rect x="10.0" y="212" width="8" height="8" fill="#00599C" rx="2" />
<text class="legend" x="24.0" y="220">MVC Architecture (48)</text>
<rect x="150.0" y="212" width="8" height="8" fill="#ED8B00" rx="2" />
<text class="legend" x="164.0" y="220">Qt (C++) (36)</text>
<rect x="10.0" y="232" width="8" height="8" fill="#3670A0" rx="2" />
<text class="legend" x="24.0" y="240">JavaFX-Swing (Java) ...</text>
<rect x="150.0" y="232" width="8" height="8" fill="#239120" rx="2" />
<text class="legend" x="164.0" y="240">WinForms (C#) (24)</text>
<rect x="10.0" y="252" width="8" height="8" fill="#F7DF1E" rx="2" />
<text class="legend" x="24.0" y="260">PyQt (Python) (24)</text>
</svg>