<svg width="280" height="270" viewBox="0 0 280 270" xmlns="http://www.w3.org/2000/svg">
<style>
    .title { fill: #24292e; font-family: -apple-system, BlinkMacSystemFont, "Segoe UI", Helvetica, Arial, sans-serif; font-size: 14px; font-weight: bold; }
    .legend { fill: #57606a; font-family: -apple-system, BlinkMacSystemFont, "Segoe UI", Helvetica, Arial, sans-serif; font-size: 11px; }
    @media (prefers-color-scheme: dark) {
      .title { fill: #c9d1d9; }
      .legend { fill: #8b949e; }
    }
    .arc { transition: opacity 0.2s; stroke: #ffffff; stroke-width: 1.5px; }
    @media (prefers-color-scheme: dark) {
      .arc { stroke: #0d1117; }
    }
    .arc:hover { opacity: 0.8; }
  </style>
<text class="title" x="140.0" y="25" dominant-baseline="middle" text-anchor="middle">Documentation</text>
<g><title>Javadoc (48)</title><path class="arc" d="M 140.0 55.0 A 70 70 0 0 1 205.45113698797905 149.8223420929775 L 177.4006497074166 139.18419548170144 A 40 40 0 0 0 140.0 85.0 Z" fill="#00599C" /></g>
<g><title>LaTeX (48)</title><path class="arc" d="M 205.45113698797905 149.8223420929775 A 70 70 0 0 1 93.58141392314434 177.39575237197707 L 113.47509367036818 154.94042992684405 A 40 40 0 0 0 177.4006497074166 139.18419548170144 Z" fill="#ED8B00" /></g>
<g><title>Doxygen (36)</title><path class="arc" d="M 93.58141392314434 177.39575237197707 A 70 70 0 0 1 82.39112938744407 85.23546772881907 L 107.08064536425374 102.27741013075376 A 40 40 0 0 0 113.47509367036818 154.94042992684405 Z" fill="#3670A0" /></g>
<g><title>JSDoc (24)</title><path class="arc" d="M 82.39112938744407 85.23546772881907 A 70 70 0 0 1 140.0 55.0 L 140.0 85.0 A 40 40 0 0 0 107.08064536425374 102.27741013075376 Z" fill="#239120" /></g>
<rect x="10.0" y="212" width="8" height="8" fill="#00599C" rx="2" />
<text class="legend" x="24.0" y="220">Javadoc (48)</text>
<rect x="150.0" y="212" width="8" height="8" fill="#ED8B00" rx="2" />
<text class="legend" x="164.0" y="220">LaTeX (48)</text>
<rect x="10.0" y="232" width="8" height="8" fill="#3670A0" rx="2" />
<text class="legend" x="24.0" y="240">Doxygen (36)</text>
<rect x="150.0" y="232" width="8" height="8" fill="#239120" rx="2" />
<text class="legend" x="164.0" y="240">JSDoc (24)</text>
</svg>