<svg width="280" height="310" viewBox="0 0 280 310" xmlns="http://www.w3.org/2000/svg">
<style>
    .title { fill: #24292e; font-family: -apple-system, BlinkMacSystemFont, "Segoe UI", Helvetica, Arial, sans-serif; font-size: 14px; font-weight: bold; }
    .legend { fill: #57606a; font-family: -apple-system, BlinkMacSystemFont, "Segoe UI", Helvetica, Arial, sans-serif; font-size: 11px; }
    .legend.expert { font-weight: bold; fill: #b8860b; }
    .legend.advanced { font-weight: 600; fill: #24292e; }
    .legend.intermediate { font-weight: normal; }
    .legend.beginner { font-style: italic; opacity: 0.8; }
    @media (prefers-color-scheme: dark) {
      .title { fill: #c9d1d9; }
      .legend { fill: #8b949e; }
      .legend.expert { fill: #e3b341; }
      .legend.advanced { fill: #c9d1d9; }
    }
    .arc { transition: opacity 0.2s; stroke: #ffffff; stroke-width: 1.5px; }
    @media (prefers-color-scheme: dark) {
      .arc { stroke: #0d1117; }
    }
    .arc:hover { opacity: 0.8; }
  </style>
<text class="title" x="140.0" y="25" dominant-baseline="middle" text-anchor="middle">Infrastructure-DevOps</text>
<g><title>VMware (VM) (50) - Expert</title><path class="arc" d="M 140.0 55.0 A 70 70 0 0 1 193.28012986862754 170.40074626239291 L 170.4457884963586 150.94328357851023 A 40 40 0 0 0 140.0 85.0 Z" fill="#00599C" /></g>
<g><title>Docker (Container) (48) - Expert</title><path class="arc" d="M 193.28012986862754 170.40074626239291 A 70 70 0 0 1 72.18335472845656 142.346545019503 L 101.24763127340375 134.912311439716 A 40 40 0 0 0 170.4457884963586 150.94328357851023 Z" fill="#ED8B00" /></g>
<g><title>OCI (10) - Intermediate</title><path class="arc" d="M 72.18335472845656 142.346545019503 A 70 70 0 0 1 71.4641138622374 110.75807908631563 L 100.83663649270709 116.86175947789465 A 40 40 0 0 0 101.24763127340375 134.912311439716 Z" fill="#3670A0" /></g>
<g><title>PaaS (Dokku) (8) - Intermediate</title><path class="arc" d="M 71.4641138622374 110.75807908631563 A 70 70 0 0 1 81.03405665114119 87.27709548590971 L 106.30517522922352 103.44405456337698 A 40 40 0 0 0 100.83663649270709 116.86175947789465 Z" fill="#239120" /></g>
<g><title>Nginx (8) - Intermediate</title><path class="arc" d="M 81.03405665114119 87.27709548590971 A 70 70 0 0 1 98.34105800268475 68.7458219181515 L 116.19489028724843 92.85475538180086 A 40 40 0 0 0 106.30517522922352 103.44405456337698 Z" fill="#F7DF1E" /></g>
<g><title>Gunicorn (7) - Beginner</title><path class="arc" d="M 98.34105800268475 68.7458219181515 A 70 70 0 0 1 118.06592224105825 58.525221076977644 L 127.46624128060472 87.01441204398722 A 40 40 0 0 0 116.19489028724843 92.85475538180086 Z" fill="#5C2D91" /></g>
<g><title>Waitress (7) - Beginner</title><path class="arc" d="M 118.06592224105825 58.525221076977644 A 70 70 0 0 1 140.0 55.0 L 140.0 85.0 A 40 40 0 0 0 127.46624128060472 87.01441204398722 Z" fill="#E34F26" /></g>
<rect x="10.0" y="212" width="8" height="8" fill="#00599C" rx="2" />
<text class="legend expert" x="24.0" y="220">VMware (VM) (50)</text>
<rect x="150.0" y="212" width="8" height="8" fill="#ED8B00" rx="2" />
<text class="legend expert" x="164.0" y="220">Docker (Container) (48)</text>
<rect x="10.0" y="232" width="8" height="8" fill="#3670A0" rx="2" />
<text class="legend intermediate" x="24.0" y="240">OCI (10)</text>
<rect x="150.0" y="232" width="8" height="8" fill="#239120" rx="2" />
<text class="legend intermediate" x="164.0" y="240">PaaS (Dokku) (8)</text>
<rect x="10.0" y="252" width="8" height="8" fill="#F7DF1E" rx="2" />
<text class="legend intermediate" x="24.0" y="260">Nginx (8)</text>
<rect x="150.0" y="252" width="8" height="8" fill="#5C2D91" rx="2" />
<text class="legend beginner" x="164.0" y="260">Gunicorn (7)</text>
<rect x="10.0" y="272" width="8" height="8" fill="#E34F26" rx="2" />
<text class="legend beginner" x="24.0" y="280">Waitress (7)</text>
</svg>