<svg width="280" height="310" viewBox="0 0 280 310" xmlns="http://www.w3.org/2000/svg">
<style>
    .title { fill: #24292e; font-family: -apple-system, BlinkMacSystemFont, "Segoe UI", Helvetica, Arial, sans-serif; font-size: 14px; font-weight: bold; }
    .legend { fill: #57606a; font-family: -apple-system, BlinkMacSystemFont, "Segoe UI", Helvetica, Arial, sans-serif; font-size: 11px; }
    .legend.expert { font-weight: bold; fill: #b8860b; }
    .legend.advanced { font-weight: 600; fill: #24292e; }
    .legend.intermediate { font-weight: normal; }
    .legend.beginner { font-style: italic; opacity: 0.8; }
    @media (prefers-color-scheme: dark) {
      .title { fill: #c9d1d9; }
      .legend { fill: #8b949e; }
      .legend.expert { fill: #e3b341; }
      .legend.advanced { fill: #c9d1d9; }
    }
    .arc { transition: opacity 0.2s; stroke: #ffffff; stroke-width: 1.5px; }
    @media (prefers-color-scheme: dark) {
      .arc { stroke: #0d1117; }
    }
    .arc:hover { opacity: 0.8; }
  </style>
<text class="title" x="140.0" y="25" dominant-baseline="middle" text-anchor="middle">Programming Languages</text>
<g><title>Java (66) - Expert</title><path class="arc" d="M 140.0 55.0 A 70 70 0 0 1 205.56207679216547 149.52782270602506 L 177.46404388123742 139.01589868915718 A 40 40 0 0 0 140.0 85.0 Z" fill="#00599C" /></g>
<g><title>C++ (36) - Advanced</title><path class="arc" d="M 205.56207679216547 149.52782270602506 A 70 70 0 0 1 151.20290173003252 194.09772060514902 L 146.40165813144714 164.48441177437087 A 40 40 0 0 0 177.46404388123742 139.01589868915718 Z" fill="#ED8B00" /></g>
<g><title>Python (36) - Advanced</title><path class="arc" d="M 151.20290173003252 194.09772060514902 A 70 70 0 0 1 85.5461816530651 168.98615313299194 L 108.88353237318006 150.13494464742396 A 40 40 0 0 0 146.40165813144714 164.48441177437087 Z" fill="#3670A0" /></g>
<g><title>C (24) - Advanced</title><path class="arc" d="M 85.5461816530651 168.98615313299194 A 70 70 0 0 1 70.0168134176691 123.46585666163125 L 100.0096076672395 124.12334666378929 A 40 40 0 0 0 108.88353237318006 150.13494464742396 Z" fill="#239120" /></g>
<g><title>JavaScript (24) - Advanced</title><path class="arc" d="M 70.0168134176691 123.46585666163125 A 70 70 0 0 1 87.52606008431486 78.6698194507612 L 110.01489147675136 98.52561111472068 A 40 40 0 0 0 100.0096076672395 124.12334666378929 Z" fill="#F7DF1E" /></g>
<g><title>Kotlin (18) - Advanced</title><path class="arc" d="M 87.52606008431486 78.6698194507612 A 70 70 0 0 1 117.8830007511792 58.58585734779331 L 127.36171471495955 87.04906134159617 A 40 40 0 0 0 110.01489147675136 98.52561111472068 Z" fill="#5C2D91" /></g>
<g><title>C# (8) - Intermediate</title><path class="arc" d="M 117.8830007511792 58.58585734779331 A 70 70 0 0 1 133.87079429185266 55.268853176021736 L 136.4975967382015 85.15363038629813 A 40 40 0 0 0 127.36171471495955 87.04906134159617 Z" fill="#E34F26" /></g>
<g><title>TypeScript (3) - Beginner</title><path class="arc" d="M 133.87079429185266 55.268853176021736 A 70 70 0 0 1 140.0 55.0 L 140.0 85.0 A 40 40 0 0 0 136.4975967382015 85.15363038629813 Z" fill="#41B883" /></g>
<rect x="10.0" y="212" width="8" height="8" fill="#00599C" rx="2" />
<text class="legend expert" x="24.0" y="220">Java (66)</text>
<rect x="150.0" y="212" width="8" height="8" fill="#ED8B00" rx="2" />
<text class="legend advanced" x="164.0" y="220">C++ (36)</text>
<rect x="10.0" y="232" width="8" height="8" fill="#3670A0" rx="2" />
<text class="legend advanced" x="24.0" y="240">Python (36)</text>
<rect x="150.0" y="232" width="8" height="8" fill="#239120" rx="2" />
<text class="legend advanced" x="164.0" y="240">C (24)</text>
<rect x="10.0" y="252" width="8" height="8" fill="#F7DF1E" rx="2" />
<text class="legend advanced" x="24.0" y="260">JavaScript (24)</text>
<rect x="150.0" y="252" width="8" height="8" fill="#5C2D91" rx="2" />
<text class="legend advanced" x="164.0" y="260">Kotlin (18)</text>
<rect x="10.0" y="272" width="8" height="8" fill="#E34F26" rx="2" />
<text class="legend intermediate" x="24.0" y="280">C# (8)</text>
<rect x="150.0" y="272" width="8" height="8" fill="#41B883" rx="2" />
<text class="legend beginner" x="164.0" y="280">TypeScript (3)</text>
</svg>