<svg width="280" height="290" viewBox="0 0 280 290" xmlns="http://www.w3.org/2000/svg">
<style>
    .title { fill: #24292e; font-family: -apple-system, BlinkMacSystemFont, "Segoe UI", Helvetica, Arial, sans-serif; font-size: 14px; font-weight: bold; }
    .legend { fill: #57606a; font-family: -apple-system, BlinkMacSystemFont, "Segoe UI", Helvetica, Arial, sans-serif; font-size: 11px; }
    @media (prefers-color-scheme: dark) {
      .title { fill: #c9d1d9; }
      .legend { fill: #8b949e; }
    }
    .arc { transition: opacity 0.2s; stroke: #ffffff; stroke-width: 1.5px; }
    @media (prefers-color-scheme: dark) {
      .arc { stroke: #0d1117; }
    }
    .arc:hover { opacity: 0.8; }
  </style>
<text class="title" x="140.0" y="25" dominant-baseline="middle" text-anchor="middle">Server Development with Python</text>
<g><title>Flask (36)</title><path class="arc" d="M 140.0 55.0 A 70 70 0 0 1 208.24495385272763 109.42353462305799 L 178.99711648727293 116.09916264174743 A 40 40 0 0 0 140.0 85.0 Z" fill="#00599C" /></g>
<g><title>Jinja (36)</title><path class="arc" d="M 208.24495385272763 109.42353462305799 A 70 70 0 0 1 170.3718617382291 188.06782075316934 L 157.35534956470232 161.03875471609678 A 40 40 0 0 0 178.99711648727293 116.09916264174743 Z" fill="#ED8B00" /></g>
<g><title>RESTful APIs (36)</title><path class="arc" d="M 170.3718617382291 188.06782075316934 A 70 70 0 0 1 85.27179622723793 168.64428613011137 L 108.72674070127881 149.93959207434935 A 40 40 0 0 0 157.35534956470232 161.03875471609678 Z" fill="#3670A0" /></g>
<g><title>FastAPI (24)</title><path class="arc" d="M 85.27179622723793 168.64428613011137 A 70 70 0 0 1 71.75504614727235 109.423534623058 L 101.00288351272705 116.09916264174743 A 40 40 0 0 0 108.72674070127881 149.93959207434935 Z" fill="#239120" /></g>
<g><title>Pydantic (24)</title><path class="arc" d="M 71.75504614727235 109.423534623058 A 70 70 0 0 1 109.62813826177091 61.93217924683067 L 122.64465043529768 88.96124528390324 A 40 40 0 0 0 101.00288351272705 116.09916264174743 Z" fill="#F7DF1E" /></g>
<g><title>Flask-WTF (12)</title><path class="arc" d="M 109.62813826177091 61.93217924683067 A 70 70 0 0 1 140.0 55.0 L 140.0 85.0 A 40 40 0 0 0 122.64465043529768 88.96124528390324 Z" fill="#5C2D91" /></g>
<rect x="10.0" y="212" width="8" height="8" fill="#00599C" rx="2" />
<text class="legend" x="24.0" y="220">Flask (36)</text>
<rect x="150.0" y="212" width="8" height="8" fill="#ED8B00" rx="2" />
<text class="legend" x="164.0" y="220">Jinja (36)</text>
<rect x="10.0" y="232" width="8" height="8" fill="#3670A0" rx="2" />
<text class="legend" x="24.0" y="240">RESTful APIs (36)</text>
<rect x="150.0" y="232" width="8" height="8" fill="#239120" rx="2" />
<text class="legend" x="164.0" y="240">FastAPI (24)</text>
<rect x="10.0" y="252" width="8" height="8" fill="#F7DF1E" rx="2" />
<text class="legend" x="24.0" y="260">Pydantic (24)</text>
<rect x="150.0" y="252" width="8" height="8" fill="#5C2D91" rx="2" />
<text class="legend" x="164.0" y="260">Flask-WTF (12)</text>
</svg>