<svg width="280" height="290" viewBox="0 0 280 290" xmlns="http://www.w3.org/2000/svg">
<style>
    .title { fill: #24292e; font-family: -apple-system, BlinkMacSystemFont, "Segoe UI", Helvetica, Arial, sans-serif; font-size: 14px; font-weight: bold; }
    .legend { fill: #57606a; font-family: -apple-system, BlinkMacSystemFont, "Segoe UI", Helvetica, Arial, sans-serif; font-size: 11px; }
    @media (prefers-color-scheme: dark) {
      .title { fill: #c9d1d9; }
      .legend { fill: #8b949e; }
    }
    .arc { transition: opacity 0.2s; stroke: #ffffff; stroke-width: 1.5px; }
    @media (prefers-color-scheme: dark) {
      .arc { stroke: #0d1117; }
    }
    .arc:hover { opacity: 0.8; }
  </style>
<text class="title" x="140.0" y="25" dominant-baseline="middle" text-anchor="middle">Server Development with Java</text>
<g><title>HTTP (48)</title><path class="arc" d="M 140.0 55.0 A 70 70 0 0 1 208.93654271085455 112.84462756331487 L 179.39231012048833 118.05407289332278 A 40 40 0 0 0 140.0 85.0 Z" fill="#00599C" /></g>
<g><title>JSON (48)</title><path class="arc" d="M 208.93654271085455 112.84462756331487 A 70 70 0 0 1 163.94141003279682 190.7784834550136 L 153.68080573302674 162.58770483143633 A 40 40 0 0 0 179.39231012048833 118.05407289332278 Z" fill="#ED8B00" /></g>
<g><title>JDBC (36)</title><path class="arc" d="M 163.94141003279682 190.7784834550136 A 70 70 0 0 1 95.00486732194224 178.62311101832847 L 114.28849561253843 155.64177772475912 A 40 40 0 0 0 153.68080573302674 162.58770483143633 Z" fill="#3670A0" /></g>
<g><title>RESTful APIs (36)</title><path class="arc" d="M 95.00486732194224 178.62311101832847 A 70 70 0 0 1 71.06345728914543 112.8446275633149 L 100.60768987951167 118.0540728933228 A 40 40 0 0 0 114.28849561253843 155.64177772475912 Z" fill="#239120" /></g>
<g><title>Javalin (24)</title><path class="arc" d="M 71.06345728914543 112.8446275633149 A 70 70 0 0 1 95.00486732194224 71.37688898167156 L 114.28849561253841 94.35822227524088 A 40 40 0 0 0 100.60768987951167 118.0540728933228 Z" fill="#F7DF1E" /></g>
<g><title>Middleware (24)</title><path class="arc" d="M 95.00486732194224 71.37688898167156 A 70 70 0 0 1 140.0 55.0 L 140.0 85.0 A 40 40 0 0 0 114.28849561253841 94.35822227524088 Z" fill="#5C2D91" /></g>
<rect x="10.0" y="212" width="8" height="8" fill="#00599C" rx="2" />
<text class="legend" x="24.0" y="220">HTTP (48)</text>
<rect x="150.0" y="212" width="8" height="8" fill="#ED8B00" rx="2" />
<text class="legend" x="164.0" y="220">JSON (48)</text>
<rect x="10.0" y="232" width="8" height="8" fill="#3670A0" rx="2" />
<text class="legend" x="24.0" y="240">JDBC (36)</text>
<rect x="150.0" y="232" width="8" height="8" fill="#239120" rx="2" />
<text class="legend" x="164.0" y="240">RESTful APIs (36)</text>
<rect x="10.0" y="252" width="8" height="8" fill="#F7DF1E" rx="2" />
<text class="legend" x="24.0" y="260">Javalin (24)</text>
<rect x="150.0" y="252" width="8" height="8" fill="#5C2D91" rx="2" />
<text class="legend" x="164.0" y="260">Middleware (24)</text>
</svg>