<svg width="280" height="330" viewBox="0 0 280 330" xmlns="http://www.w3.org/2000/svg">
<style>
    .title { fill: #24292e; font-family: -apple-system, BlinkMacSystemFont, "Segoe UI", Helvetica, Arial, sans-serif; font-size: 14px; font-weight: bold; }
    .legend { fill: #57606a; font-family: -apple-system, BlinkMacSystemFont, "Segoe UI", Helvetica, Arial, sans-serif; font-size: 11px; }
    .legend.expert { font-weight: bold; fill: #b8860b; }
    .legend.advanced { font-weight: 600; fill: #24292e; }
    .legend.intermediate { font-weight: normal; }
    .legend.beginner { font-style: italic; opacity: 0.8; }
    @media (prefers-color-scheme: dark) {
      .title { fill: #c9d1d9; }
      .legend { fill: #8b949e; }
      .legend.expert { fill: #e3b341; }
      .legend.advanced { fill: #c9d1d9; }
    }
    .arc { transition: opacity 0.2s; stroke: #ffffff; stroke-width: 1.5px; }
    @media (prefers-color-scheme: dark) {
      .arc { stroke: #0d1117; }
    }
    .arc:hover { opacity: 0.8; }
  </style>
<text class="title" x="140.0" y="25" dominant-baseline="middle" text-anchor="middle">Software Engineering</text>
<g><title>DSA (60) - Expert</title><path class="arc" d="M 140.0 55.0 A 70 70 0 0 1 195.86120590961676 82.81557545345206 L 171.92068909120957 100.89461454482975 A 40 40 0 0 0 140.0 85.0 Z" fill="#00599C" /></g>
<g><title>OOP principle (60) - Expert</title><path class="arc" d="M 195.86120590961676 82.81557545345206 A 70 70 0 0 1 207.32779502209735 144.1564093050458 L 178.47302572691277 135.9465196028833 A 40 40 0 0 0 171.92068909120957 100.89461454482975 Z" fill="#ED8B00" /></g>
<g><title>Socket Networking (48) - Expert</title><path class="arc" d="M 207.32779502209735 144.1564093050458 A 70 70 0 0 1 176.85025140141488 184.515199501073 L 161.05728651509423 159.00868542918457 A 40 40 0 0 0 178.47302572691277 135.9465196028833 Z" fill="#3670A0" /></g>
<g><title>Linux/Unix (48) - Expert</title><path class="arc" d="M 176.85025140141488 184.515199501073 A 70 70 0 0 1 127.13753375284006 193.8081169778731 L 132.6500192873372 164.31892398735607 A 40 40 0 0 0 161.05728651509423 159.00868542918457 Z" fill="#239120" /></g>
<g><title>Design Patterns (36) - Advanced</title><path class="arc" d="M 127.13753375284006 193.8081169778731 A 70 70 0 0 1 92.84130494474097 176.7306242054461 L 113.0521742541377 154.56035668882635 A 40 40 0 0 0 132.6500192873372 164.31892398735607 Z" fill="#F7DF1E" /></g>
<g><title>Functional-Lambda (36) - Advanced</title><path class="arc" d="M 92.84130494474097 176.7306242054461 A 70 70 0 0 1 72.67220497790265 144.15640930504577 L 101.52697427308723 135.94651960288328 A 40 40 0 0 0 113.0521742541377 154.56035668882635 Z" fill="#5C2D91" /></g>
<g><title>Agile-Scrum (36) - Advanced</title><path class="arc" d="M 72.67220497790265 144.15640930504577 A 70 70 0 0 1 72.67220497790268 105.84359069495414 L 101.52697427308725 114.05348039711666 A 40 40 0 0 0 101.52697427308723 135.94651960288328 Z" fill="#E34F26" /></g>
<g><title>TDD (30) - Advanced</title><path class="arc" d="M 72.67220497790268 105.84359069495414 A 70 70 0 0 1 88.2693757945539 77.84130494474095 L 110.43964331117365 98.05217425413768 A 40 40 0 0 0 101.52697427308725 114.05348039711666 Z" fill="#41B883" /></g>
<g><title>System Design (30) - Advanced</title><path class="arc" d="M 88.2693757945539 77.84130494474095 A 70 70 0 0 1 114.71308336689935 59.72694394169507 L 125.55033335251392 87.70111082382576 A 40 40 0 0 0 110.43964331117365 98.05217425413768 Z" fill="#009688" /></g>
<g><title>Multithreading (24) - Advanced</title><path class="arc" d="M 114.71308336689935 59.72694394169507 A 70 70 0 0 1 140.00000000000006 55.0 L 140.00000000000003 85.0 A 40 40 0 0 0 125.55033335251392 87.70111082382576 Z" fill="#D24939" /></g>
<rect x="10.0" y="212" width="8" height="8" fill="#00599C" rx="2" />
<text class="legend expert" x="24.0" y="220">DSA (60)</text>
<rect x="150.0" y="212" width="8" height="8" fill="#ED8B00" rx="2" />
<text class="legend expert" x="164.0" y="220">OOP principle (60)</text>
<rect x="10.0" y="232" width="8" height="8" fill="#3670A0" rx="2" />
<text class="legend expert" x="24.0" y="240">Socket Networking (48)</text>
<rect x="150.0" y="232" width="8" height="8" fill="#239120" rx="2" />
<text class="legend expert" x="164.0" y="240">Linux/Unix (48)</text>
<rect x="10.0" y="252" width="8" height="8" fill="#F7DF1E" rx="2" />
<text class="legend advanced" x="24.0" y="260">Design Patterns (36)</text>
<rect x="150.0" y="252" width="8" height="8" fill="#5C2D91" rx="2" />
<text class="legend advanced" x="164.0" y="260">Functional-Lambda (36)</text>
<rect x="10.0" y="272" width="8" height="8" fill="#E34F26" rx="2" />
<text class="legend advanced" x="24.0" y="280">Agile-Scrum (36)</text>
<rect x="150.0" y="272" width="8" height="8" fill="#41B883" rx="2" />
<text class="legend advanced" x="164.0" y="280">TDD (30)</text>
<rect x="10.0" y="292" width="8" height="8" fill="#009688" rx="2" />
<text class="legend advanced" x="24.0" y="300">System Design (30)</text>
<rect x="150.0" y="292" width="8" height="8" fill="#D24939" rx="2" />
<text class="legend advanced" x="164.0" y="300">Multithreading (24)</text>
</svg>