<svg width="280" height="310" viewBox="0 0 280 310" xmlns="http://www.w3.org/2000/svg">
<style>
    .title { fill: #24292e; font-family: -apple-system, BlinkMacSystemFont, "Segoe UI", Helvetica, Arial, sans-serif; font-size: 14px; font-weight: bold; }
    .legend { fill: #57606a; font-family: -apple-system, BlinkMacSystemFont, "Segoe UI", Helvetica, Arial, sans-serif; font-size: 11px; }
    .legend.expert { font-weight: bold; fill: #b8860b; }
    .legend.advanced { font-weight: 600; fill: #24292e; }
    .legend.intermediate { font-weight: normal; }
    .legend.beginner { font-style: italic; opacity: 0.8; }
    @media (prefers-color-scheme: dark) {
      .title { fill: #c9d1d9; }
      .legend { fill: #8b949e; }
      .legend.expert { fill: #e3b341; }
      .legend.advanced { fill: #c9d1d9; }
    }
    .arc { transition: opacity 0.2s; stroke: #ffffff; stroke-width: 1.5px; }
    @media (prefers-color-scheme: dark) {
      .arc { stroke: #0d1117; }
    }
    .arc:hover { opacity: 0.8; }
  </style>
<text class="title" x="140.0" y="25" dominant-baseline="middle" text-anchor="middle">Web Development with Angular</text>
<g><title>HTML-CSS (30) - Advanced</title><path class="arc" d="M 140.0 55.0 A 70 70 0 0 1 207.6606389596032 142.9454154473566 L 178.6632222626304 135.2545231127752 A 40 40 0 0 0 140.0 85.0 Z" fill="#00599C" /></g>
<g><title>JavaScript (24) - Advanced</title><path class="arc" d="M 207.6606389596032 142.9454154473566 A 70 70 0 0 1 129.36601746977644 194.18755968775673 L 133.92343855415797 164.53574839300384 A 40 40 0 0 0 178.6632222626304 135.2545231127752 Z" fill="#ED8B00" /></g>
<g><title>SASS-SCSS (16) - Intermediate</title><path class="arc" d="M 129.36601746977644 194.18755968775673 A 70 70 0 0 1 76.73502005833427 154.9590105474235 L 103.84858289047673 142.11943459852773 A 40 40 0 0 0 133.92343855415797 164.53574839300384 Z" fill="#3670A0" /></g>
<g><title>Bootstrap (16) - Intermediate</title><path class="arc" d="M 76.73502005833427 154.9590105474235 A 70 70 0 0 1 79.73719255776439 89.38547993893457 L 105.56411003300822 104.64884567939117 A 40 40 0 0 0 103.84858289047673 142.11943459852773 Z" fill="#239120" /></g>
<g><title>Jest (8) - Intermediate</title><path class="arc" d="M 79.73719255776439 89.38547993893457 A 70 70 0 0 1 103.47062210954583 65.2873166660851 L 119.12606977688333 90.87846666633435 A 40 40 0 0 0 105.56411003300822 104.64884567939117 Z" fill="#F7DF1E" /></g>
<g><title>TypeScript (3) - Beginner</title><path class="arc" d="M 103.47062210954583 65.2873166660851 A 70 70 0 0 1 114.94746765498208 59.63662628733252 L 125.68426723141833 87.64950073561857 A 40 40 0 0 0 119.12606977688333 90.87846666633435 Z" fill="#5C2D91" /></g>
<g><title>Angular (3) - Beginner</title><path class="arc" d="M 114.94746765498208 59.63662628733252 A 70 70 0 0 1 127.26100788693873 56.16891632450232 L 132.72057593539355 85.6679521854299 A 40 40 0 0 0 125.68426723141833 87.64950073561857 Z" fill="#E34F26" /></g>
<g><title>RxJS (3) - Beginner</title><path class="arc" d="M 127.26100788693873 56.16891632450232 A 70 70 0 0 1 140.00000000000006 55.0 L 140.00000000000003 85.0 A 40 40 0 0 0 132.72057593539355 85.6679521854299 Z" fill="#41B883" /></g>
<rect x="10.0" y="212" width="8" height="8" fill="#00599C" rx="2" />
<text class="legend advanced" x="24.0" y="220">HTML-CSS (30)</text>
<rect x="150.0" y="212" width="8" height="8" fill="#ED8B00" rx="2" />
<text class="legend advanced" x="164.0" y="220">JavaScript (24)</text>
<rect x="10.0" y="232" width="8" height="8" fill="#3670A0" rx="2" />
<text class="legend intermediate" x="24.0" y="240">SASS-SCSS (16)</text>
<rect x="150.0" y="232" width="8" height="8" fill="#239120" rx="2" />
<text class="legend intermediate" x="164.0" y="240">Bootstrap (16)</text>
<rect x="10.0" y="252" width="8" height="8" fill="#F7DF1E" rx="2" />
<text class="legend intermediate" x="24.0" y="260">Jest (8)</text>
<rect x="150.0" y="252" width="8" height="8" fill="#5C2D91" rx="2" />
<text class="legend beginner" x="164.0" y="260">TypeScript (3)</text>
<rect x="10.0" y="272" width="8" height="8" fill="#E34F26" rx="2" />
<text class="legend beginner" x="24.0" y="280">Angular (3)</text>
<rect x="150.0" y="272" width="8" height="8" fill="#41B883" rx="2" />
<text class="legend beginner" x="164.0" y="280">RxJS (3)</text>
</svg>