<svg width="280" height="290" viewBox="0 0 280 290" xmlns="http://www.w3.org/2000/svg">
<style>
    .title { fill: #24292e; font-family: -apple-system, BlinkMacSystemFont, "Segoe UI", Helvetica, Arial, sans-serif; font-size: 14px; font-weight: bold; }
    .legend { fill: #57606a; font-family: -apple-system, BlinkMacSystemFont, "Segoe UI", Helvetica, Arial, sans-serif; font-size: 11px; }
    .legend.expert { font-weight: bold; fill: #b8860b; }
    .legend.advanced { font-weight: 600; fill: #24292e; }
    .legend.intermediate { font-weight: normal; }
    .legend.beginner { font-style: italic; opacity: 0.8; }
    @media (prefers-color-scheme: dark) {
      .title { fill: #c9d1d9; }
      .legend { fill: #8b949e; }
      .legend.expert { fill: #e3b341; }
      .legend.advanced { fill: #c9d1d9; }
    }
    .arc { transition: opacity 0.2s; stroke: #ffffff; stroke-width: 1.5px; }
    @media (prefers-color-scheme: dark) {
      .arc { stroke: #0d1117; }
    }
    .arc:hover { opacity: 0.8; }
  </style>
<text class="title" x="140.0" y="25" dominant-baseline="middle" text-anchor="middle">Web Development with React</text>
<g><title>Responsive Design (12) - Intermediate</title><path class="arc" d="M 140.0 55.0 A 70 70 0 0 1 189.49747468305833 174.49747468305833 L 168.2842712474619 153.2842712474619 A 40 40 0 0 0 140.0 85.0 Z" fill="#00599C" /></g>
<g><title>JSX (5) - Beginner</title><path class="arc" d="M 189.49747468305833 174.49747468305833 A 70 70 0 0 1 126.34367745887103 193.65496962822613 L 132.19638711935488 164.23141121612923 A 40 40 0 0 0 168.2842712474619 153.2842712474619 Z" fill="#ED8B00" /></g>
<g><title>Components (5) - Beginner</title><path class="arc" d="M 126.34367745887103 193.65496962822613 A 70 70 0 0 1 75.32843272420993 151.7878402655563 L 103.04481869954853 140.3073372946036 A 40 40 0 0 0 132.19638711935488 164.23141121612923 Z" fill="#3670A0" /></g>
<g><title>Hooks (5) - Beginner</title><path class="arc" d="M 75.32843272420993 151.7878402655563 A 70 70 0 0 1 81.79712713882182 86.11008368862787 L 106.74121550789818 102.77719067921592 A 40 40 0 0 0 103.04481869954853 140.3073372946036 Z" fill="#239120" /></g>
<g><title>Tailwind CSS (5) - Beginner</title><path class="arc" d="M 81.79712713882182 86.11008368862787 A 70 70 0 0 1 140.0 55.0 L 140.0 85.0 A 40 40 0 0 0 106.74121550789818 102.77719067921592 Z" fill="#F7DF1E" /></g>
<rect x="10.0" y="212" width="8" height="8" fill="#00599C" rx="2" />
<text class="legend intermediate" x="24.0" y="220">Responsive Design (12)</text>
<rect x="150.0" y="212" width="8" height="8" fill="#ED8B00" rx="2" />
<text class="legend beginner" x="164.0" y="220">JSX (5)</text>
<rect x="10.0" y="232" width="8" height="8" fill="#3670A0" rx="2" />
<text class="legend beginner" x="24.0" y="240">Components (5)</text>
<rect x="150.0" y="232" width="8" height="8" fill="#239120" rx="2" />
<text class="legend beginner" x="164.0" y="240">Hooks (5)</text>
<rect x="10.0" y="252" width="8" height="8" fill="#F7DF1E" rx="2" />
<text class="legend beginner" x="24.0" y="260">Tailwind CSS (5)</text>
</svg>