<svg width="280" height="310" viewBox="0 0 280 310" xmlns="http://www.w3.org/2000/svg">
<style>
    .title { fill: #24292e; font-family: -apple-system, BlinkMacSystemFont, "Segoe UI", Helvetica, Arial, sans-serif; font-size: 14px; font-weight: bold; }
    .legend { fill: #57606a; font-family: -apple-system, BlinkMacSystemFont, "Segoe UI", Helvetica, Arial, sans-serif; font-size: 11px; }
    @media (prefers-color-scheme: dark) {
      .title { fill: #c9d1d9; }
      .legend { fill: #8b949e; }
    }
    .arc { transition: opacity 0.2s; stroke: #ffffff; stroke-width: 1.5px; }
    @media (prefers-color-scheme: dark) {
      .arc { stroke: #0d1117; }
    }
    .arc:hover { opacity: 0.8; }
  </style>
<text class="title" x="140.0" y="25" dominant-baseline="middle" text-anchor="middle">Web Development with Jakarta EE</text>
<g><title>JDBC (36)</title><path class="arc" d="M 140.0 55.0 A 70 70 0 0 1 204.67156727579007 98.21215973444372 L 176.95518130045147 109.6926627053964 A 40 40 0 0 0 140.0 85.0 Z" fill="#00599C" /></g>
<g><title>HTTP (36)</title><path class="arc" d="M 204.67156727579007 98.21215973444372 A 70 70 0 0 1 189.49747468305833 174.49747468305833 L 168.2842712474619 153.2842712474619 A 40 40 0 0 0 176.95518130045147 109.6926627053964 Z" fill="#ED8B00" /></g>
<g><title>JSP (24)</title><path class="arc" d="M 189.49747468305833 174.49747468305833 A 70 70 0 0 1 140.0 195.0 L 140.0 165.0 A 40 40 0 0 0 168.2842712474619 153.2842712474619 Z" fill="#3670A0" /></g>
<g><title>Servlets (24)</title><path class="arc" d="M 140.0 195.0 A 70 70 0 0 1 90.50252531694167 174.49747468305833 L 111.7157287525381 153.2842712474619 A 40 40 0 0 0 140.0 165.0 Z" fill="#239120" /></g>
<g><title>SOAP (24)</title><path class="arc" d="M 90.50252531694167 174.49747468305833 A 70 70 0 0 1 70.0 125.00000000000001 L 100.0 125.0 A 40 40 0 0 0 111.7157287525381 153.2842712474619 Z" fill="#F7DF1E" /></g>
<g><title>XML (24)</title><path class="arc" d="M 70.0 125.00000000000001 A 70 70 0 0 1 90.50252531694167 75.50252531694167 L 111.7157287525381 96.7157287525381 A 40 40 0 0 0 100.0 125.0 Z" fill="#5C2D91" /></g>
<g><title>MVC Architecture (24)</title><path class="arc" d="M 90.50252531694167 75.50252531694167 A 70 70 0 0 1 140.0 55.0 L 140.0 85.0 A 40 40 0 0 0 111.7157287525381 96.7157287525381 Z" fill="#E34F26" /></g>
<rect x="10.0" y="212" width="8" height="8" fill="#00599C" rx="2" />
<text class="legend" x="24.0" y="220">JDBC (36)</text>
<rect x="150.0" y="212" width="8" height="8" fill="#ED8B00" rx="2" />
<text class="legend" x="164.0" y="220">HTTP (36)</text>
<rect x="10.0" y="232" width="8" height="8" fill="#3670A0" rx="2" />
<text class="legend" x="24.0" y="240">JSP (24)</text>
<rect x="150.0" y="232" width="8" height="8" fill="#239120" rx="2" />
<text class="legend" x="164.0" y="240">Servlets (24)</text>
<rect x="10.0" y="252" width="8" height="8" fill="#F7DF1E" rx="2" />
<text class="legend" x="24.0" y="260">SOAP (24)</text>
<rect x="150.0" y="252" width="8" height="8" fill="#5C2D91" rx="2" />
<text class="legend" x="164.0" y="260">XML (24)</text>
<rect x="10.0" y="272" width="8" height="8" fill="#E34F26" rx="2" />
<text class="legend" x="24.0" y="280">MVC Architecture (24)</text>
</svg>